<?xml version="1.0" encoding="UTF-8"?>
<svg xmlns="http://www.w3.org/2000/svg" xmlns:xlink="http://www.w3.org/1999/xlink" width="96pt" height="58pt" viewBox="0 0 96 58" version="1.1">
<g id="surface1">
<path style=" stroke:none;fill-rule:nonzero;fill:rgb(0%,0%,0%);fill-opacity:1;" d="M 22.652344 15.121094 L 40.757812 15.121094 L 40.757812 16.5625 L 24.3125 16.5625 L 24.3125 27.40625 L 39.777344 27.40625 L 39.777344 28.847656 L 24.3125 28.847656 L 24.3125 40.75 L 40.945312 40.75 L 40.945312 42.191406 L 22.652344 42.191406 Z M 42.378906 15.121094 L 44.304688 15.121094 L 52.828125 27.027344 L 61.542969 15.121094 L 73.394531 0 L 53.921875 28.277344 L 63.957031 42.191406 L 61.957031 42.191406 L 52.828125 29.527344 L 43.664062 42.191406 L 41.703125 42.191406 L 51.8125 28.277344 Z M 64.675781 16.5625 L 64.675781 15.121094 L 85.308594 15.121094 L 85.308594 16.5625 L 75.800781 16.5625 L 75.800781 42.191406 L 74.140625 42.191406 L 74.140625 16.5625 Z M 0 15.121094 L 2.074219 15.121094 L 30.683594 57.976562 L 18.859375 42.191406 L 1.734375 17.167969 L 1.660156 42.191406 L 0 42.191406 Z M 85.140625 40.316406 C 84.800781 40.316406 84.546875 40.050781 84.546875 39.710938 C 84.546875 39.371094 84.800781 39.109375 85.140625 39.109375 C 85.484375 39.109375 85.734375 39.371094 85.734375 39.710938 C 85.734375 40.050781 85.484375 40.316406 85.140625 40.316406 Z M 86.773438 38.730469 L 87.660156 38.730469 C 87.671875 39.210938 88.023438 39.535156 88.539062 39.535156 C 89.117188 39.535156 89.445312 39.1875 89.445312 38.535156 L 89.445312 34.40625 L 90.347656 34.40625 L 90.347656 38.539062 C 90.347656 39.710938 89.671875 40.386719 88.546875 40.386719 C 87.492188 40.386719 86.773438 39.734375 86.773438 38.730469 Z M 91.53125 38.675781 L 92.425781 38.675781 C 92.503906 39.230469 93.046875 39.582031 93.824219 39.582031 C 94.550781 39.582031 95.082031 39.207031 95.082031 38.6875 C 95.082031 38.242188 94.746094 37.976562 93.972656 37.792969 L 93.222656 37.613281 C 92.167969 37.367188 91.6875 36.855469 91.6875 35.996094 C 91.6875 34.957031 92.535156 34.265625 93.808594 34.265625 C 94.992188 34.265625 95.855469 34.957031 95.90625 35.941406 L 95.027344 35.941406 C 94.941406 35.402344 94.472656 35.066406 93.796875 35.066406 C 93.082031 35.066406 92.605469 35.410156 92.605469 35.9375 C 92.605469 36.355469 92.910156 36.59375 93.671875 36.769531 L 94.3125 36.929688 C 95.507812 37.207031 96 37.695312 96 38.570312 C 96 39.6875 95.136719 40.386719 93.753906 40.386719 C 92.464844 40.386719 91.59375 39.71875 91.53125 38.675781 Z M 91.53125 38.675781 "/>
</g>
</svg>
